<svg width="32" height="32" viewBox="0 0 32 32" fill="none" xmlns="http://www.w3.org/2000/svg">
<g clip-path="url(#clip0_940_110)">
<path d="M10.6666 2C8.14191 2 6.09521 4.08934 6.09521 6.66667C6.09521 9.244 8.14191 11.3333 10.6666 11.3333L21.3333 11.3333C23.858 11.3333 25.9047 9.244 25.9047 6.66667C25.9047 4.08934 23.858 2 21.3333 2L10.6666 2Z" fill="#017AFF"/>
<path d="M11.0475 2.19444C8.52277 2.19444 6.47607 4.28378 6.47607 6.86111C6.47607 9.43844 8.52277 11.5278 11.0475 11.5278L21.7142 11.5278C24.2389 11.5278 26.2856 9.43844 26.2856 6.86111C26.2856 4.28378 24.2389 2.19444 21.7142 2.19444L11.0475 2.19444Z" fill="#017AFF"/>
<path d="M11.8097 2.58333C9.28498 2.58333 7.23828 4.67267 7.23828 7.25C7.23828 9.82733 9.28498 11.9167 11.8097 11.9167L22.4764 11.9167C25.0011 11.9167 27.0478 9.82733 27.0478 7.25C27.0478 4.67267 25.0011 2.58333 22.4764 2.58333L11.8097 2.58333Z" fill="#017AFF"/>
<path d="M12.5714 2.97222C10.0467 2.97222 8 5.06156 8 7.63889C8 10.2162 10.0467 12.3056 12.5714 12.3056L23.2381 12.3056C25.7628 12.3056 27.8095 10.2162 27.8095 7.63889C27.8095 5.06156 25.7628 2.97222 23.2381 2.97222L12.5714 2.97222Z" fill="#017AFF"/>
<path d="M13.3331 3.36111C10.8084 3.36111 8.76172 5.45045 8.76172 8.02778C8.76172 10.6051 10.8084 12.6944 13.3331 12.6944L23.9998 12.6944C26.5245 12.6944 28.5712 10.6051 28.5712 8.02778C28.5712 5.45045 26.5245 3.36111 23.9998 3.36111L13.3331 3.36111Z" fill="#017AFF"/>
<path d="M14.0954 3.75C11.5706 3.75 9.52393 5.83934 9.52393 8.41667C9.52393 10.994 11.5706 13.0833 14.0954 13.0833L24.762 13.0833C27.2868 13.0833 29.3334 10.994 29.3334 8.41667C29.3334 5.83934 27.2868 3.75 24.762 3.75L14.0954 3.75Z" fill="#017AFF"/>
<path d="M14.8571 4.13889C12.3323 4.13889 10.2856 6.22823 10.2856 8.80555C10.2856 11.3829 12.3323 13.4722 14.8571 13.4722L25.5237 13.4722C28.0485 13.4722 30.0952 11.3829 30.0952 8.80555C30.0952 6.22823 28.0485 4.13889 25.5237 4.13889L14.8571 4.13889Z" fill="#017AFF"/>
<path d="M15.6193 4.52778C13.0945 4.52778 11.0479 6.61712 11.0479 9.19444C11.0479 11.7718 13.0945 13.8611 15.6193 13.8611L26.2859 13.8611C28.8107 13.8611 30.8574 11.7718 30.8574 9.19444C30.8574 6.61712 28.8107 4.52778 26.2859 4.52778L15.6193 4.52778Z" fill="#017AFF"/>
<path d="M16.381 4.91667C13.8563 4.91667 11.8096 7.006 11.8096 9.58333C11.8096 12.1607 13.8563 14.25 16.381 14.25L27.0477 14.25C29.5724 14.25 31.6191 12.1607 31.6191 9.58333C31.6191 7.006 29.5724 4.91667 27.0477 4.91667L16.381 4.91667Z" fill="#017AFF"/>
<path d="M16.7619 5.11111C14.2371 5.11111 12.1904 7.20045 12.1904 9.77778C12.1904 12.3551 14.2371 14.4444 16.7619 14.4444L27.4285 14.4444C29.9533 14.4444 32 12.3551 32 9.77778C32 7.20045 29.9533 5.11111 27.4285 5.11111L16.7619 5.11111Z" fill="#017AFF"/>
<path d="M16.0001 4.72222C13.4754 4.72222 11.4287 6.81156 11.4287 9.38889C11.4287 11.9662 13.4754 14.0556 16.0001 14.0556L26.6668 14.0556C29.1915 14.0556 31.2382 11.9662 31.2382 9.38889C31.2382 6.81156 29.1915 4.72222 26.6668 4.72222L16.0001 4.72222Z" fill="#017AFF"/>
<path d="M15.2379 4.33333C12.7132 4.33333 10.6665 6.42267 10.6665 9C10.6665 11.5773 12.7132 13.6667 15.2379 13.6667L25.9046 13.6667C28.4293 13.6667 30.476 11.5773 30.476 9C30.476 6.42267 28.4293 4.33333 25.9046 4.33333L15.2379 4.33333Z" fill="#017AFF"/>
<path d="M14.4762 3.94445C11.9515 3.94445 9.90479 6.03378 9.90479 8.61111C9.90479 11.1884 11.9515 13.2778 14.4762 13.2778L25.1429 13.2778C27.6676 13.2778 29.7143 11.1884 29.7143 8.61111C29.7143 6.03378 27.6676 3.94445 25.1429 3.94445L14.4762 3.94445Z" fill="#017AFF"/>
<path d="M13.7145 3.55556C11.1898 3.55556 9.14307 5.64489 9.14307 8.22222C9.14307 10.7996 11.1898 12.8889 13.7145 12.8889L24.3812 12.8889C26.9059 12.8889 28.9526 10.7996 28.9526 8.22222C28.9526 5.64489 26.9059 3.55556 24.3812 3.55556L13.7145 3.55556Z" fill="#017AFF"/>
<path d="M12.9523 3.16667C10.4276 3.16667 8.38086 5.256 8.38086 7.83333C8.38086 10.4107 10.4276 12.5 12.9523 12.5L23.619 12.5C26.1437 12.5 28.1904 10.4107 28.1904 7.83333C28.1904 5.256 26.1437 3.16667 23.619 3.16667L12.9523 3.16667Z" fill="#017AFF"/>
<path d="M12.1906 2.77778C9.66584 2.77778 7.61914 4.86712 7.61914 7.44444C7.61914 10.0218 9.66584 12.1111 12.1906 12.1111L22.8572 12.1111C25.382 12.1111 27.4287 10.0218 27.4287 7.44444C27.4287 4.86712 25.382 2.77778 22.8572 2.77778L12.1906 2.77778Z" fill="#017AFF"/>
<path d="M11.4284 2.38889C8.90363 2.38889 6.85693 4.47823 6.85693 7.05556C6.85693 9.63288 8.90363 11.7222 11.4284 11.7222L22.095 11.7222C24.6198 11.7222 26.6665 9.63288 26.6665 7.05556C26.6665 4.47823 24.6198 2.38889 22.095 2.38889L11.4284 2.38889Z" fill="#017AFF"/>
<path d="M10.6666 4.33333C9.40421 4.33333 8.38086 5.378 8.38086 6.66667C8.38086 7.95533 9.40421 9 10.6666 9H21.3332C22.5956 9 23.619 7.95533 23.619 6.66667C23.619 5.378 22.5956 4.33333 21.3332 4.33333L10.6666 4.33333Z" fill="white"/>
<path d="M7.61928 9.77778C5.09455 9.77778 3.04785 11.8671 3.04785 14.4444C3.04785 17.0218 5.09455 19.1111 7.61928 19.1111H14.4764C17.0012 19.1111 19.0479 17.0218 19.0479 14.4444C19.0479 11.8671 17.0012 9.77778 14.4764 9.77778H7.61928Z" fill="#017AFF"/>
<path d="M13.7145 12.8889C11.1898 12.8889 9.14307 14.9782 9.14307 17.5556C9.14307 20.1329 11.1898 22.2222 13.7145 22.2222H20.5716C23.0964 22.2222 25.1431 20.1329 25.1431 17.5556C25.1431 14.9782 23.0964 12.8889 20.5716 12.8889H13.7145Z" fill="#017AFF"/>
<path d="M12.9523 12.5C10.4276 12.5 8.38086 14.5893 8.38086 17.1667C8.38086 19.744 10.4276 21.8333 12.9523 21.8333H19.8094C22.3342 21.8333 24.3809 19.744 24.3809 17.1667C24.3809 14.5893 22.3342 12.5 19.8094 12.5H12.9523Z" fill="#017AFF"/>
<path d="M12.1906 12.1111C9.66584 12.1111 7.61914 14.2004 7.61914 16.7778C7.61914 19.3551 9.66584 21.4444 12.1906 21.4444H19.0477C21.5724 21.4444 23.6191 19.3551 23.6191 16.7778C23.6191 14.2004 21.5724 12.1111 19.0477 12.1111H12.1906Z" fill="#017AFF"/>
<path d="M11.4284 11.7222C8.90363 11.7222 6.85693 13.8116 6.85693 16.3889C6.85693 18.9662 8.90363 21.0556 11.4284 21.0556H18.2855C20.8102 21.0556 22.8569 18.9662 22.8569 16.3889C22.8569 13.8116 20.8102 11.7222 18.2855 11.7222H11.4284Z" fill="#017AFF"/>
<path d="M10.6666 11.3333C8.14191 11.3333 6.09521 13.4227 6.09521 16C6.09521 18.5773 8.14191 20.6667 10.6666 20.6667H17.5238C20.0485 20.6667 22.0952 18.5773 22.0952 16C22.0952 13.4227 20.0485 11.3333 17.5238 11.3333H10.6666Z" fill="#017AFF"/>
<path d="M9.90492 10.9444C7.38019 10.9444 5.3335 13.0338 5.3335 15.6111C5.3335 18.1884 7.38019 20.2778 9.90492 20.2778H16.7621C19.2868 20.2778 21.3335 18.1884 21.3335 15.6111C21.3335 13.0338 19.2868 10.9444 16.7621 10.9444H9.90492Z" fill="#017AFF"/>
<path d="M9.14272 10.5556C6.61799 10.5556 4.57129 12.6449 4.57129 15.2222C4.57129 17.7996 6.61799 19.8889 9.14272 19.8889H15.9999C18.5246 19.8889 20.5713 17.7996 20.5713 15.2222C20.5713 12.6449 18.5246 10.5556 15.9999 10.5556H9.14272Z" fill="#017AFF"/>
<path d="M8.381 10.1667C5.85627 10.1667 3.80957 12.256 3.80957 14.8333C3.80957 17.4107 5.85627 19.5 8.381 19.5H15.2381C17.7629 19.5 19.8096 17.4107 19.8096 14.8333C19.8096 12.256 17.7629 10.1667 15.2381 10.1667H8.381Z" fill="#017AFF"/>
<path d="M8.00014 9.97222C5.47541 9.97222 3.42871 12.0616 3.42871 14.6389C3.42871 17.2162 5.47541 19.3056 8.00014 19.3056H14.8573C17.382 19.3056 19.4287 17.2162 19.4287 14.6389C19.4287 12.0616 17.382 9.97222 14.8573 9.97222H8.00014Z" fill="#017AFF"/>
<path d="M8.76186 10.3611C6.23713 10.3611 4.19043 12.4504 4.19043 15.0278C4.19043 17.6051 6.23713 19.6944 8.76186 19.6944H15.619C18.1437 19.6944 20.1904 17.6051 20.1904 15.0278C20.1904 12.4504 18.1437 10.3611 15.619 10.3611H8.76186Z" fill="#017AFF"/>
<path d="M9.52358 10.75C6.99885 10.75 4.95215 12.8393 4.95215 15.4167C4.95215 17.994 6.99885 20.0833 9.52358 20.0833H16.3807C18.9055 20.0833 20.9521 17.994 20.9521 15.4167C20.9521 12.8393 18.9055 10.75 16.3807 10.75H9.52358Z" fill="#017AFF"/>
<path d="M10.2858 11.1389C7.76105 11.1389 5.71436 13.2282 5.71436 15.8056C5.71436 18.3829 7.76105 20.4722 10.2858 20.4722H17.1429C19.6677 20.4722 21.7144 18.3829 21.7144 15.8056C21.7144 13.2282 19.6677 11.1389 17.1429 11.1389H10.2858Z" fill="#017AFF"/>
<path d="M11.0475 11.5278C8.52277 11.5278 6.47607 13.6171 6.47607 16.1944C6.47607 18.7718 8.52277 20.8611 11.0475 20.8611H17.9046C20.4294 20.8611 22.4761 18.7718 22.4761 16.1944C22.4761 13.6171 20.4294 11.5278 17.9046 11.5278H11.0475Z" fill="#017AFF"/>
<path d="M11.8097 11.9167C9.28498 11.9167 7.23828 14.006 7.23828 16.5833C7.23828 19.1607 9.28498 21.25 11.8097 21.25H18.6669C21.1916 21.25 23.2383 19.1607 23.2383 16.5833C23.2383 14.006 21.1916 11.9167 18.6669 11.9167H11.8097Z" fill="#017AFF"/>
<path d="M12.5714 12.3056C10.0467 12.3056 8 14.3949 8 16.9722C8 19.5496 10.0467 21.6389 12.5714 21.6389H19.4286C21.9533 21.6389 24 19.5496 24 16.9722C24 14.3949 21.9533 12.3056 19.4286 12.3056H12.5714Z" fill="#017AFF"/>
<path d="M13.3331 12.6944C10.8084 12.6944 8.76172 14.7838 8.76172 17.3611C8.76172 19.9384 10.8084 22.0278 13.3331 22.0278H20.1903C22.715 22.0278 24.7617 19.9384 24.7617 17.3611C24.7617 14.7838 22.715 12.6944 20.1903 12.6944H13.3331Z" fill="#017AFF"/>
<path d="M7.61921 12.1111C6.35685 12.1111 5.3335 13.1558 5.3335 14.4444C5.3335 15.7331 6.35685 16.7778 7.61921 16.7778H14.4764C15.7387 16.7778 16.7621 15.7331 16.7621 14.4444C16.7621 13.1558 15.7387 12.1111 14.4764 12.1111H7.61921Z" fill="white"/>
<path d="M4.57143 17.5556C2.0467 17.5556 0 19.6449 0 22.2222C0 24.7996 2.0467 26.8889 4.57143 26.8889H7.61905C10.1438 26.8889 12.1905 24.7996 12.1905 22.2222C12.1905 19.6449 10.1438 17.5556 7.61905 17.5556H4.57143Z" fill="#017AFF"/>
<path d="M10.6666 20.6667C8.14191 20.6667 6.09521 22.756 6.09521 25.3333C6.09521 27.9107 8.14191 30 10.6666 30H13.7143C16.239 30 18.2857 27.9107 18.2857 25.3333C18.2857 22.756 16.239 20.6667 13.7143 20.6667H10.6666Z" fill="#017AFF"/>
<path d="M10.2858 20.4722C7.76105 20.4722 5.71436 22.5616 5.71436 25.1389C5.71436 27.7162 7.76105 29.8056 10.2858 29.8056H13.3334C15.8581 29.8056 17.9048 27.7162 17.9048 25.1389C17.9048 22.5616 15.8581 20.4722 13.3334 20.4722H10.2858Z" fill="#017AFF"/>
<path d="M9.90492 20.2778C7.38019 20.2778 5.3335 22.3671 5.3335 24.9444C5.3335 27.5218 7.38019 29.6111 9.90492 29.6111H12.9525C15.4773 29.6111 17.524 27.5218 17.524 24.9444C17.524 22.3671 15.4773 20.2778 12.9525 20.2778H9.90492Z" fill="#017AFF"/>
<path d="M9.52358 20.0833C6.99885 20.0833 4.95215 22.1727 4.95215 24.75C4.95215 27.3273 6.99885 29.4167 9.52358 29.4167H12.5712C15.0959 29.4167 17.1426 27.3273 17.1426 24.75C17.1426 22.1727 15.0959 20.0833 12.5712 20.0833H9.52358Z" fill="#017AFF"/>
<path d="M9.14272 19.8889C6.61799 19.8889 4.57129 21.9782 4.57129 24.5556C4.57129 27.1329 6.61799 29.2222 9.14272 29.2222H12.1903C14.7151 29.2222 16.7618 27.1329 16.7618 24.5556C16.7618 21.9782 14.7151 19.8889 12.1903 19.8889H9.14272Z" fill="#017AFF"/>
<path d="M8.76186 19.6944C6.23713 19.6944 4.19043 21.7838 4.19043 24.3611C4.19043 26.9384 6.23713 29.0278 8.76186 29.0278H11.8095C14.3342 29.0278 16.3809 26.9384 16.3809 24.3611C16.3809 21.7838 14.3342 19.6944 11.8095 19.6944H8.76186Z" fill="#017AFF"/>
<path d="M8.381 19.5C5.85627 19.5 3.80957 21.5893 3.80957 24.1667C3.80957 26.744 5.85627 28.8333 8.381 28.8333H11.4286C13.9533 28.8333 16 26.744 16 24.1667C16 21.5893 13.9533 19.5 11.4286 19.5H8.381Z" fill="#017AFF"/>
<path d="M8.00014 19.3056C5.47541 19.3056 3.42871 21.3949 3.42871 23.9722C3.42871 26.5496 5.47541 28.6389 8.00014 28.6389H11.0478C13.5725 28.6389 15.6192 26.5496 15.6192 23.9722C15.6192 21.3949 13.5725 19.3056 11.0478 19.3056H8.00014Z" fill="#017AFF"/>
<path d="M7.61928 19.1111C5.09455 19.1111 3.04785 21.2004 3.04785 23.7778C3.04785 26.3551 5.09455 28.4444 7.61928 28.4444H10.6669C13.1916 28.4444 15.2383 26.3551 15.2383 23.7778C15.2383 21.2004 13.1916 19.1111 10.6669 19.1111H7.61928Z" fill="#017AFF"/>
<path d="M7.23793 18.9167C4.7132 18.9167 2.6665 21.006 2.6665 23.5833C2.6665 26.1607 4.7132 28.25 7.23793 28.25H10.2856C12.8103 28.25 14.857 26.1607 14.857 23.5833C14.857 21.006 12.8103 18.9167 10.2856 18.9167H7.23793Z" fill="#017AFF"/>
<path d="M6.85707 18.7222C4.33234 18.7222 2.28564 20.8116 2.28564 23.3889C2.28564 25.9662 4.33234 28.0556 6.85707 28.0556H9.90469C12.4294 28.0556 14.4761 25.9662 14.4761 23.3889C14.4761 20.8116 12.4294 18.7222 9.90469 18.7222H6.85707Z" fill="#017AFF"/>
<path d="M6.47621 18.5278C3.95148 18.5278 1.90479 20.6171 1.90479 23.1944C1.90479 25.7718 3.95148 27.8611 6.47621 27.8611H9.52383C12.0486 27.8611 14.0953 25.7718 14.0953 23.1944C14.0953 20.6171 12.0486 18.5278 9.52383 18.5278H6.47621Z" fill="#017AFF"/>
<path d="M6.09535 18.3333C3.57062 18.3333 1.52393 20.4227 1.52393 23C1.52393 25.5773 3.57062 27.6667 6.09535 27.6667H9.14297C11.6677 27.6667 13.7144 25.5773 13.7144 23C13.7144 20.4227 11.6677 18.3333 9.14297 18.3333H6.09535Z" fill="#017AFF"/>
<path d="M5.71449 18.1389C3.18976 18.1389 1.14307 20.2282 1.14307 22.8056C1.14307 25.3829 3.18976 27.4722 5.71449 27.4722H8.76211C11.2868 27.4722 13.3335 25.3829 13.3335 22.8056C13.3335 20.2282 11.2868 18.1389 8.76211 18.1389H5.71449Z" fill="#017AFF"/>
<path d="M5.33315 17.9444C2.80842 17.9444 0.761719 20.0338 0.761719 22.6111C0.761719 25.1884 2.80842 27.2778 5.33315 27.2778H8.38077C10.9055 27.2778 12.9522 25.1884 12.9522 22.6111C12.9522 20.0338 10.9055 17.9444 8.38077 17.9444H5.33315Z" fill="#017AFF"/>
<path d="M4.95229 17.75C2.42756 17.75 0.380859 19.8393 0.380859 22.4167C0.380859 24.994 2.42756 27.0833 4.95229 27.0833H7.99991C10.5246 27.0833 12.5713 24.994 12.5713 22.4167C12.5713 19.8393 10.5246 17.75 7.99991 17.75H4.95229Z" fill="#017AFF"/>
<path d="M4.57143 17.5556C2.0467 17.5556 0 19.6449 0 22.2222C0 24.7996 2.0467 26.8889 4.57143 26.8889H7.61905C10.1438 26.8889 12.1905 24.7996 12.1905 22.2222C12.1905 19.6449 10.1438 17.5556 7.61905 17.5556H4.57143Z" fill="#017AFF"/>
<path d="M4.57136 19.8889C3.30899 19.8889 2.28564 20.9336 2.28564 22.2222C2.28564 23.5109 3.30899 24.5556 4.57136 24.5556H7.61898C8.88134 24.5556 9.90469 23.5109 9.90469 22.2222C9.90469 20.9336 8.88134 19.8889 7.61898 19.8889H4.57136Z" fill="white"/>
</g>
<defs>
<clipPath id="clip0_940_110">
<rect width="32" height="28" fill="white" transform="translate(0 2)"/>
</clipPath>
</defs>
</svg>
